<svg width="16" height="16" viewBox="0 0 16 16" fill="none" xmlns="http://www.w3.org/2000/svg">
<path d="M12.167 12L3.83299 12C3.61193 12 3.39993 11.9122 3.24362 11.7559C3.0873 11.5996 2.99949 11.3876 2.99949 11.1665C2.99949 10.9454 3.0873 10.7334 3.24362 10.5771C3.39993 10.4208 3.61193 10.333 3.83299 10.333L12.167 10.333C12.388 10.333 12.6001 10.4208 12.7564 10.5771C12.9127 10.7334 13.0005 10.9454 13.0005 11.1665C13.0005 11.3876 12.9127 11.5996 12.7564 11.7559C12.6001 11.9122 12.388 12 12.167 12ZM12.167 6L7.83299 6C7.61193 6 7.39993 5.91218 7.24362 5.75587C7.0873 5.59956 6.99949 5.38756 6.99949 5.1665C6.99949 4.94544 7.0873 4.73344 7.24362 4.57713C7.39993 4.42081 7.61193 4.333 7.83299 4.333L12.167 4.333C12.388 4.333 12.6001 4.42081 12.7564 4.57713C12.9127 4.73344 13.0005 4.94544 13.0005 5.1665C13.0005 5.38756 12.9127 5.59956 12.7564 5.75587C12.6001 5.91219 12.388 6 12.167 6ZM12.167 9L5.83299 9C5.61193 9 5.39993 8.91218 5.24362 8.75587C5.0873 8.59956 4.99949 8.38756 4.99949 8.1665C4.99949 7.94544 5.0873 7.73344 5.24362 7.57713C5.39993 7.42081 5.61193 7.333 5.83299 7.333L12.167 7.333C12.388 7.333 12.6001 7.42081 12.7564 7.57713C12.9127 7.73344 13.0005 7.94544 13.0005 8.1665C13.0005 8.38756 12.9127 8.59956 12.7564 8.75587C12.6001 8.91219 12.388 9 12.167 9Z" fill="black"/>
</svg>
