<svg width="16" height="16" viewBox="0 0 16 16" fill="none" xmlns="http://www.w3.org/2000/svg">
<path d="M3.83301 4H12.167C12.3881 4 12.6001 4.08781 12.7564 4.24413C12.9127 4.40044 13.0005 4.61244 13.0005 4.8335C13.0005 5.05456 12.9127 5.26656 12.7564 5.42287C12.6001 5.57919 12.3881 5.667 12.167 5.667H3.83301C3.61195 5.667 3.39995 5.57919 3.24364 5.42287C3.08733 5.26656 2.99951 5.05456 2.99951 4.8335C2.99951 4.61244 3.08733 4.40044 3.24364 4.24413C3.39995 4.08781 3.61195 4 3.83301 4ZM3.83301 10H8.16701C8.38807 10 8.60007 10.0878 8.75638 10.2441C8.9127 10.4004 9.00051 10.6124 9.00051 10.8335C9.00051 11.0546 8.9127 11.2666 8.75638 11.4229C8.60007 11.5792 8.38807 11.667 8.16701 11.667H3.83301C3.61195 11.667 3.39995 11.5792 3.24364 11.4229C3.08733 11.2666 2.99951 11.0546 2.99951 10.8335C2.99951 10.6124 3.08733 10.4004 3.24364 10.2441C3.39995 10.0878 3.61195 10 3.83301 10ZM3.83301 7H10.167C10.3881 7 10.6001 7.08781 10.7564 7.24413C10.9127 7.40044 11.0005 7.61244 11.0005 7.8335C11.0005 8.05456 10.9127 8.26656 10.7564 8.42287C10.6001 8.57919 10.3881 8.667 10.167 8.667H3.83301C3.61195 8.667 3.39995 8.57919 3.24364 8.42287C3.08733 8.26656 2.99951 8.05456 2.99951 7.8335C2.99951 7.61244 3.08733 7.40044 3.24364 7.24413C3.39995 7.08781 3.61195 7 3.83301 7Z" fill="black"/>
</svg>
